<svg data-v-423bf9ae="" xmlns="http://www.w3.org/2000/svg" viewBox="0 0 133.08824526259937 60" class="font"><!----><!----><!----><g data-v-423bf9ae="" id="37244e77-9757-4aa0-9853-c0df649c1044" fill="white" transform="matrix(4.901960875977926,0,0,4.901960875977926,-5.14705981350285,-18.921569158920022)"><path d="M2.55 15.67L2.55 15.67Q1.75 15.67 1.40 15.39L1.40 15.39L1.40 15.39Q1.05 15.11 1.05 14.45L1.05 14.45L1.05 14.45Q1.05 13.79 1.52 10.46L1.52 10.46L1.52 10.46Q1.99 7.14 1.99 5.72L1.99 5.72L1.99 5.72Q1.99 4.30 1.79 3.86L1.79 3.86L1.79 3.86Q3.21 3.98 3.67 4.97L3.67 4.97L3.67 4.97Q4.68 4.41 5.96 4.41L5.96 4.41L5.96 4.41Q7.24 4.41 8.06 5.15L8.06 5.15L8.06 5.15Q8.88 5.88 8.88 6.85L8.88 6.85L8.88 6.85Q8.88 7.81 8.22 8.77L8.22 8.77L8.22 8.77Q7.56 9.73 6.26 10.22L6.26 10.22L6.44 10.77L6.44 10.77Q6.94 12.33 7.90 13.87L7.90 13.87L7.90 13.87Q8.85 15.40 9.45 15.96L9.45 15.96L9.45 15.96Q8.93 16.10 8.42 16.10L8.42 16.10L8.42 16.10Q7.91 16.10 7.39 15.77L7.39 15.77L7.39 15.77Q6.87 15.44 6.53 15.05L6.53 15.05L6.53 15.05Q6.19 14.66 5.77 13.80L5.77 13.80L5.77 13.80Q5.35 12.95 5.17 12.47L5.17 12.47L5.17 12.47Q4.98 12.00 4.77 11.42L4.77 11.42L4.77 11.42Q4.55 10.85 4.54 10.81L4.54 10.81L4.54 10.81Q4.52 10.77 4.49 10.70L4.49 10.70L4.49 10.70Q4.47 10.64 4.45 10.58L4.45 10.58L4.45 10.58Q4.14 10.58 3.85 10.58L3.85 10.58L3.81 9.94L3.81 9.94Q5.59 9.87 6.45 8.67L6.45 8.67L6.45 8.67Q6.93 7.99 6.93 7.29L6.93 7.29L6.93 7.29Q6.93 7.03 6.87 6.78L6.87 6.78L6.87 6.78Q6.64 5.87 5.74 5.64L5.74 5.64L5.74 5.64Q5.49 5.57 5.04 5.57L5.04 5.57L5.04 5.57Q4.59 5.57 3.85 5.87L3.85 5.87L3.85 5.87Q3.85 6.40 3.45 9.35L3.45 9.35L3.45 9.35Q3.05 12.29 3.05 14.27L3.05 14.27L3.05 14.27Q3.05 15.15 3.14 15.64L3.14 15.64L3.14 15.64Q2.69 15.67 2.55 15.67L2.55 15.67ZM13.97 15.64L13.97 15.64L13.97 15.64Q12.32 15.64 11.20 14.38L11.20 14.38L11.20 14.38Q10.08 13.12 10.08 10.71L10.08 10.71L10.08 10.71Q10.08 8.02 11.47 6.13L11.47 6.13L11.47 6.13Q12.15 5.22 13.22 4.68L13.22 4.68L13.22 4.68Q14.29 4.14 15.70 4.14L15.70 4.14L15.70 4.14Q17.11 4.14 17.84 4.89L17.84 4.89L17.84 4.89Q18.58 5.64 18.58 6.66L18.58 6.66L18.58 6.66Q18.58 7.67 18.02 8.31L18.02 8.31L18.02 8.31Q17.46 8.95 16.56 8.95L16.56 8.95L16.56 8.95Q16.25 8.95 15.85 8.83L15.85 8.83L15.85 8.83Q16.14 8.47 16.37 7.80L16.37 7.80L16.37 7.80Q16.59 7.13 16.59 6.52L16.59 6.52L16.59 6.52Q16.59 5.92 16.31 5.54L16.31 5.54L16.31 5.54Q16.03 5.17 15.43 5.17L15.43 5.17L15.43 5.17Q14.50 5.17 13.76 6.02L13.76 6.02L13.76 6.02Q13.02 6.87 12.66 8.12L12.66 8.12L12.66 8.12Q12.29 9.37 12.29 10.70L12.29 10.70L12.29 10.70Q12.29 12.49 12.99 13.41L12.99 13.41L12.99 13.41Q13.69 14.34 14.78 14.34L14.78 14.34L14.78 14.34Q15.47 14.34 16.21 13.87L16.21 13.87L16.21 13.87Q16.95 13.41 17.63 12.56L17.63 12.56L17.63 12.56Q18.14 12.67 18.14 13.08L18.14 13.08L18.14 13.08Q17.61 14.04 16.84 14.64L16.84 14.64L16.84 14.64Q16.07 15.25 15.39 15.44L15.39 15.44L15.39 15.44Q14.70 15.64 13.97 15.64ZM23.59 15.64L23.59 15.64L23.59 15.64Q21.94 15.64 20.82 14.38L20.82 14.38L20.82 14.38Q19.70 13.12 19.70 10.71L19.70 10.71L19.70 10.71Q19.70 8.02 21.08 6.13L21.08 6.13L21.08 6.13Q21.77 5.22 22.84 4.68L22.84 4.68L22.84 4.68Q23.91 4.14 25.32 4.14L25.32 4.14L25.32 4.14Q26.73 4.14 27.46 4.89L27.46 4.89L27.46 4.89Q28.20 5.64 28.20 6.66L28.20 6.66L28.20 6.66Q28.20 7.67 27.64 8.31L27.64 8.31L27.64 8.31Q27.08 8.95 26.18 8.95L26.18 8.95L26.18 8.95Q25.87 8.95 25.47 8.83L25.47 8.83L25.47 8.83Q25.76 8.47 25.98 7.80L25.98 7.80L25.98 7.80Q26.21 7.13 26.21 6.52L26.21 6.52L26.21 6.52Q26.21 5.92 25.93 5.54L25.93 5.54L25.93 5.54Q25.65 5.17 25.05 5.17L25.05 5.17L25.05 5.17Q24.12 5.17 23.38 6.02L23.38 6.02L23.38 6.02Q22.64 6.87 22.27 8.12L22.27 8.12L22.27 8.12Q21.91 9.37 21.91 10.70L21.91 10.70L21.91 10.70Q21.91 12.49 22.61 13.41L22.61 13.41L22.61 13.41Q23.31 14.34 24.40 14.34L24.40 14.34L24.40 14.34Q25.09 14.34 25.83 13.87L25.83 13.87L25.83 13.87Q26.57 13.41 27.24 12.56L27.24 12.56L27.24 12.56Q27.76 12.67 27.76 13.08L27.76 13.08L27.76 13.08Q27.23 14.04 26.46 14.64L26.46 14.64L26.46 14.64Q25.69 15.25 25.00 15.44L25.00 15.44L25.00 15.44Q24.32 15.64 23.59 15.64Z"></path></g><!----><!----></svg>